<mxfile host="app.diagrams.net" modified="2023-03-02T08:17:30.798Z" agent="5.0 (Macintosh; Intel Mac OS X 10_15_7) AppleWebKit/537.36 (KHTML, like Gecko) Chrome/109.0.0.0 Safari/537.36" etag="rdv4CXFPXqYkVMJeF0xz" version="20.8.23" type="github">
  <diagram name="Page-1" id="74e2e168-ea6b-b213-b513-2b3c1d86103e">
    <mxGraphModel dx="954" dy="562" grid="1" gridSize="10" guides="1" tooltips="1" connect="1" arrows="1" fold="1" page="1" pageScale="1" pageWidth="1100" pageHeight="850" background="none" math="0" shadow="0">
      <root>
        <mxCell id="0" />
        <mxCell id="1" parent="0" />
        <mxCell id="77e6c97f196da883-1" value="小程序登录" style="swimlane;html=1;childLayout=stackLayout;startSize=20;rounded=0;shadow=0;labelBackgroundColor=none;strokeWidth=1;fontFamily=Verdana;fontSize=8;align=center;" parent="1" vertex="1">
          <mxGeometry x="70" y="40" width="560" height="570" as="geometry" />
        </mxCell>
        <mxCell id="77e6c97f196da883-2" value="微信小程序端" style="swimlane;html=1;startSize=20;" parent="77e6c97f196da883-1" vertex="1">
          <mxGeometry y="20" width="190" height="550" as="geometry" />
        </mxCell>
        <mxCell id="77e6c97f196da883-8" value="wx.login" style="rounded=1;whiteSpace=wrap;html=1;shadow=0;labelBackgroundColor=none;strokeWidth=1;fontFamily=Verdana;fontSize=8;align=center;" parent="77e6c97f196da883-2" vertex="1">
          <mxGeometry x="42.5" y="90" width="105" height="40" as="geometry" />
        </mxCell>
        <mxCell id="St_N9CnWfyDUKcXHqgjy-3" style="edgeStyle=orthogonalEdgeStyle;rounded=0;orthogonalLoop=1;jettySize=auto;html=1;entryX=0.5;entryY=0;entryDx=0;entryDy=0;" edge="1" parent="77e6c97f196da883-2" source="St_N9CnWfyDUKcXHqgjy-2" target="77e6c97f196da883-8">
          <mxGeometry relative="1" as="geometry" />
        </mxCell>
        <mxCell id="St_N9CnWfyDUKcXHqgjy-2" value="打开小程序" style="strokeWidth=2;html=1;shape=mxgraph.flowchart.start_1;whiteSpace=wrap;" vertex="1" parent="77e6c97f196da883-2">
          <mxGeometry x="52.5" y="30" width="85" height="40" as="geometry" />
        </mxCell>
        <mxCell id="St_N9CnWfyDUKcXHqgjy-10" value="业务请求" style="rounded=1;whiteSpace=wrap;html=1;shadow=0;labelBackgroundColor=none;strokeWidth=1;fontFamily=Verdana;fontSize=8;align=center;" vertex="1" parent="77e6c97f196da883-2">
          <mxGeometry x="42.5" y="160" width="105" height="40" as="geometry" />
        </mxCell>
        <mxCell id="St_N9CnWfyDUKcXHqgjy-13" value="账号密码登录" style="rounded=1;whiteSpace=wrap;html=1;shadow=0;labelBackgroundColor=none;strokeWidth=1;fontFamily=Verdana;fontSize=8;align=center;" vertex="1" parent="77e6c97f196da883-2">
          <mxGeometry x="42.5" y="230" width="105" height="40" as="geometry" />
        </mxCell>
        <mxCell id="77e6c97f196da883-3" value="教育平台" style="swimlane;html=1;startSize=20;" parent="77e6c97f196da883-1" vertex="1">
          <mxGeometry x="190" y="20" width="200" height="550" as="geometry" />
        </mxCell>
        <mxCell id="St_N9CnWfyDUKcXHqgjy-4" value="获取用户openid" style="rounded=1;whiteSpace=wrap;html=1;shadow=0;labelBackgroundColor=none;strokeWidth=1;fontFamily=Verdana;fontSize=8;align=center;" vertex="1" parent="77e6c97f196da883-3">
          <mxGeometry x="47.5" y="90" width="105" height="40" as="geometry" />
        </mxCell>
        <mxCell id="St_N9CnWfyDUKcXHqgjy-8" value="是否有用户数据" style="strokeWidth=1;html=1;shape=mxgraph.flowchart.decision;whiteSpace=wrap;" vertex="1" parent="77e6c97f196da883-3">
          <mxGeometry x="57.5" y="152.5" width="85" height="55" as="geometry" />
        </mxCell>
        <mxCell id="St_N9CnWfyDUKcXHqgjy-16" value="账号密码获取用户信息" style="rounded=1;whiteSpace=wrap;html=1;shadow=0;labelBackgroundColor=none;strokeWidth=1;fontFamily=Verdana;fontSize=8;align=center;" vertex="1" parent="77e6c97f196da883-3">
          <mxGeometry x="47.5" y="280" width="105" height="40" as="geometry" />
        </mxCell>
        <mxCell id="St_N9CnWfyDUKcXHqgjy-26" style="edgeStyle=orthogonalEdgeStyle;rounded=0;orthogonalLoop=1;jettySize=auto;html=1;entryX=0.5;entryY=0;entryDx=0;entryDy=0;" edge="1" parent="77e6c97f196da883-3" source="St_N9CnWfyDUKcXHqgjy-21" target="St_N9CnWfyDUKcXHqgjy-25">
          <mxGeometry relative="1" as="geometry" />
        </mxCell>
        <mxCell id="St_N9CnWfyDUKcXHqgjy-21" value="是否有用户信息" style="strokeWidth=1;html=1;shape=mxgraph.flowchart.decision;whiteSpace=wrap;" vertex="1" parent="77e6c97f196da883-3">
          <mxGeometry x="57.5" y="340" width="85" height="50" as="geometry" />
        </mxCell>
        <mxCell id="St_N9CnWfyDUKcXHqgjy-31" style="edgeStyle=orthogonalEdgeStyle;rounded=0;orthogonalLoop=1;jettySize=auto;html=1;entryX=0.5;entryY=0;entryDx=0;entryDy=0;" edge="1" parent="77e6c97f196da883-3" source="St_N9CnWfyDUKcXHqgjy-25" target="St_N9CnWfyDUKcXHqgjy-30">
          <mxGeometry relative="1" as="geometry" />
        </mxCell>
        <mxCell id="St_N9CnWfyDUKcXHqgjy-25" value="用户绑定" style="rounded=1;whiteSpace=wrap;html=1;shadow=0;labelBackgroundColor=none;strokeWidth=1;fontFamily=Verdana;fontSize=8;align=center;" vertex="1" parent="77e6c97f196da883-3">
          <mxGeometry x="47.5" y="410" width="105" height="40" as="geometry" />
        </mxCell>
        <mxCell id="St_N9CnWfyDUKcXHqgjy-30" value="生成jwt" style="rounded=1;whiteSpace=wrap;html=1;shadow=0;labelBackgroundColor=none;strokeWidth=1;fontFamily=Verdana;fontSize=8;align=center;" vertex="1" parent="77e6c97f196da883-3">
          <mxGeometry x="47.5" y="470" width="105" height="40" as="geometry" />
        </mxCell>
        <mxCell id="77e6c97f196da883-4" value="教育号" style="swimlane;html=1;startSize=20;" parent="77e6c97f196da883-1" vertex="1">
          <mxGeometry x="390" y="20" width="170" height="550" as="geometry" />
        </mxCell>
        <mxCell id="St_N9CnWfyDUKcXHqgjy-6" value="查询用户信息" style="rounded=1;whiteSpace=wrap;html=1;shadow=0;labelBackgroundColor=none;strokeWidth=1;fontFamily=Verdana;fontSize=8;align=center;" vertex="1" parent="77e6c97f196da883-4">
          <mxGeometry x="50" y="90" width="105" height="40" as="geometry" />
        </mxCell>
        <mxCell id="St_N9CnWfyDUKcXHqgjy-18" value="查询用户信息" style="rounded=1;whiteSpace=wrap;html=1;shadow=0;labelBackgroundColor=none;strokeWidth=1;fontFamily=Verdana;fontSize=8;align=center;" vertex="1" parent="77e6c97f196da883-4">
          <mxGeometry x="50" y="280" width="105" height="40" as="geometry" />
        </mxCell>
        <mxCell id="St_N9CnWfyDUKcXHqgjy-28" value="openid和用户绑定" style="rounded=1;whiteSpace=wrap;html=1;shadow=0;labelBackgroundColor=none;strokeWidth=1;fontFamily=Verdana;fontSize=8;align=center;" vertex="1" parent="77e6c97f196da883-4">
          <mxGeometry x="50" y="410" width="105" height="40" as="geometry" />
        </mxCell>
        <mxCell id="St_N9CnWfyDUKcXHqgjy-5" style="edgeStyle=orthogonalEdgeStyle;rounded=0;orthogonalLoop=1;jettySize=auto;html=1;entryX=0;entryY=0.5;entryDx=0;entryDy=0;" edge="1" parent="77e6c97f196da883-1" source="77e6c97f196da883-8" target="St_N9CnWfyDUKcXHqgjy-4">
          <mxGeometry relative="1" as="geometry" />
        </mxCell>
        <mxCell id="St_N9CnWfyDUKcXHqgjy-7" value="openid" style="edgeStyle=orthogonalEdgeStyle;rounded=0;orthogonalLoop=1;jettySize=auto;html=1;entryX=0;entryY=0.5;entryDx=0;entryDy=0;" edge="1" parent="77e6c97f196da883-1" source="St_N9CnWfyDUKcXHqgjy-4" target="St_N9CnWfyDUKcXHqgjy-6">
          <mxGeometry relative="1" as="geometry" />
        </mxCell>
        <mxCell id="St_N9CnWfyDUKcXHqgjy-9" style="edgeStyle=orthogonalEdgeStyle;rounded=0;orthogonalLoop=1;jettySize=auto;html=1;entryX=1;entryY=0.5;entryDx=0;entryDy=0;entryPerimeter=0;exitX=0.5;exitY=1;exitDx=0;exitDy=0;" edge="1" parent="77e6c97f196da883-1" source="St_N9CnWfyDUKcXHqgjy-6" target="St_N9CnWfyDUKcXHqgjy-8">
          <mxGeometry relative="1" as="geometry" />
        </mxCell>
        <mxCell id="St_N9CnWfyDUKcXHqgjy-11" style="edgeStyle=orthogonalEdgeStyle;rounded=0;orthogonalLoop=1;jettySize=auto;html=1;" edge="1" parent="77e6c97f196da883-1" source="St_N9CnWfyDUKcXHqgjy-8" target="St_N9CnWfyDUKcXHqgjy-10">
          <mxGeometry relative="1" as="geometry" />
        </mxCell>
        <mxCell id="St_N9CnWfyDUKcXHqgjy-12" value="是，返回jwt" style="edgeLabel;html=1;align=center;verticalAlign=middle;resizable=0;points=[];" vertex="1" connectable="0" parent="St_N9CnWfyDUKcXHqgjy-11">
          <mxGeometry x="-0.0154" y="2" relative="1" as="geometry">
            <mxPoint as="offset" />
          </mxGeometry>
        </mxCell>
        <mxCell id="St_N9CnWfyDUKcXHqgjy-14" style="edgeStyle=orthogonalEdgeStyle;rounded=0;orthogonalLoop=1;jettySize=auto;html=1;entryX=1;entryY=0.5;entryDx=0;entryDy=0;exitX=0.5;exitY=1;exitDx=0;exitDy=0;exitPerimeter=0;" edge="1" parent="77e6c97f196da883-1" source="St_N9CnWfyDUKcXHqgjy-8" target="St_N9CnWfyDUKcXHqgjy-13">
          <mxGeometry relative="1" as="geometry" />
        </mxCell>
        <mxCell id="St_N9CnWfyDUKcXHqgjy-15" value="否" style="edgeLabel;html=1;align=center;verticalAlign=middle;resizable=0;points=[];" vertex="1" connectable="0" parent="St_N9CnWfyDUKcXHqgjy-14">
          <mxGeometry x="-0.0904" y="1" relative="1" as="geometry">
            <mxPoint as="offset" />
          </mxGeometry>
        </mxCell>
        <mxCell id="St_N9CnWfyDUKcXHqgjy-17" style="edgeStyle=orthogonalEdgeStyle;rounded=0;orthogonalLoop=1;jettySize=auto;html=1;entryX=0;entryY=0.5;entryDx=0;entryDy=0;exitX=0.5;exitY=1;exitDx=0;exitDy=0;" edge="1" parent="77e6c97f196da883-1" source="St_N9CnWfyDUKcXHqgjy-13" target="St_N9CnWfyDUKcXHqgjy-16">
          <mxGeometry relative="1" as="geometry" />
        </mxCell>
        <mxCell id="St_N9CnWfyDUKcXHqgjy-19" style="edgeStyle=orthogonalEdgeStyle;rounded=0;orthogonalLoop=1;jettySize=auto;html=1;entryX=0;entryY=0.5;entryDx=0;entryDy=0;" edge="1" parent="77e6c97f196da883-1" source="St_N9CnWfyDUKcXHqgjy-16" target="St_N9CnWfyDUKcXHqgjy-18">
          <mxGeometry relative="1" as="geometry" />
        </mxCell>
        <mxCell id="St_N9CnWfyDUKcXHqgjy-20" value="账号、密码" style="edgeLabel;html=1;align=center;verticalAlign=middle;resizable=0;points=[];" vertex="1" connectable="0" parent="St_N9CnWfyDUKcXHqgjy-19">
          <mxGeometry x="-0.4125" relative="1" as="geometry">
            <mxPoint x="14" as="offset" />
          </mxGeometry>
        </mxCell>
        <mxCell id="St_N9CnWfyDUKcXHqgjy-22" style="edgeStyle=orthogonalEdgeStyle;rounded=0;orthogonalLoop=1;jettySize=auto;html=1;entryX=1;entryY=0.5;entryDx=0;entryDy=0;entryPerimeter=0;exitX=0.5;exitY=1;exitDx=0;exitDy=0;" edge="1" parent="77e6c97f196da883-1" source="St_N9CnWfyDUKcXHqgjy-18" target="St_N9CnWfyDUKcXHqgjy-21">
          <mxGeometry relative="1" as="geometry" />
        </mxCell>
        <mxCell id="St_N9CnWfyDUKcXHqgjy-23" style="edgeStyle=orthogonalEdgeStyle;rounded=0;orthogonalLoop=1;jettySize=auto;html=1;entryX=0;entryY=0.5;entryDx=0;entryDy=0;exitX=0;exitY=0.5;exitDx=0;exitDy=0;exitPerimeter=0;" edge="1" parent="77e6c97f196da883-1" source="St_N9CnWfyDUKcXHqgjy-21" target="St_N9CnWfyDUKcXHqgjy-13">
          <mxGeometry relative="1" as="geometry">
            <Array as="points">
              <mxPoint x="30" y="385" />
              <mxPoint x="30" y="280" />
              <mxPoint x="43" y="280" />
            </Array>
          </mxGeometry>
        </mxCell>
        <mxCell id="St_N9CnWfyDUKcXHqgjy-24" value="否" style="edgeLabel;html=1;align=center;verticalAlign=middle;resizable=0;points=[];" vertex="1" connectable="0" parent="St_N9CnWfyDUKcXHqgjy-23">
          <mxGeometry x="-0.396" y="1" relative="1" as="geometry">
            <mxPoint as="offset" />
          </mxGeometry>
        </mxCell>
        <mxCell id="St_N9CnWfyDUKcXHqgjy-29" style="edgeStyle=orthogonalEdgeStyle;rounded=0;orthogonalLoop=1;jettySize=auto;html=1;" edge="1" parent="77e6c97f196da883-1" source="St_N9CnWfyDUKcXHqgjy-25" target="St_N9CnWfyDUKcXHqgjy-28">
          <mxGeometry relative="1" as="geometry" />
        </mxCell>
        <mxCell id="St_N9CnWfyDUKcXHqgjy-32" style="edgeStyle=orthogonalEdgeStyle;rounded=0;orthogonalLoop=1;jettySize=auto;html=1;entryX=0;entryY=0.25;entryDx=0;entryDy=0;exitX=0;exitY=0.5;exitDx=0;exitDy=0;" edge="1" parent="77e6c97f196da883-1" source="St_N9CnWfyDUKcXHqgjy-30" target="St_N9CnWfyDUKcXHqgjy-10">
          <mxGeometry relative="1" as="geometry">
            <Array as="points">
              <mxPoint x="10" y="510" />
              <mxPoint x="10" y="190" />
            </Array>
          </mxGeometry>
        </mxCell>
      </root>
    </mxGraphModel>
  </diagram>
</mxfile>
